<?xml version="1.0" standalone="no"?>
<!DOCTYPE svg PUBLIC "-//W3C//DTD SVG 20010904//EN"
 "http://www.w3.org/TR/2001/REC-SVG-20010904/DTD/svg10.dtd">
<svg version="1.0" xmlns="http://www.w3.org/2000/svg"
 width="275.000000pt" height="183.000000pt" viewBox="0 0 275.000000 183.000000"
 preserveAspectRatio="xMidYMid meet">

<g transform="translate(0.000000,183.000000) scale(0.100000,-0.100000)"
fill="#000000" stroke="none">
<path d="M1327 1430 c-284 -82 -522 -152 -528 -156 -7 -4 -8 -20 -4 -43 4 -20
10 -214 14 -431 l6 -395 570 0 570 0 3 362 2 363 -442 2 -443 3 425 123 c234
68 429 128 434 133 6 5 1 39 -14 86 -22 74 -41 104 -64 102 -6 0 -244 -67
-529 -149z m398 13 c-26 -49 -55 -95 -64 -104 -15 -16 -129 -54 -136 -47 -2 2
22 48 53 103 57 99 57 99 112 116 30 9 61 17 68 18 9 1 -4 -33 -33 -86z m174
26 c7 -23 15 -47 17 -54 3 -8 -15 -18 -52 -28 -32 -9 -59 -15 -61 -13 -5 5 70
136 77 136 4 0 12 -18 19 -41z m-411 -28 c-1 -5 -25 -50 -53 -100 l-50 -91
-64 -20 c-35 -11 -67 -20 -71 -20 -5 0 17 46 48 102 l57 102 55 17 c64 20 83
22 78 10z m-278 -78 c0 -5 -24 -51 -53 -102 l-52 -95 -58 -17 c-45 -13 -59
-14 -63 -5 -3 7 18 52 45 102 48 87 50 89 103 106 61 19 78 21 78 11z m-280
-80 c0 -5 -8 -18 -18 -31 l-18 -23 -18 20 c-15 16 -16 21 -5 25 8 2 21 7 29 9
23 8 30 8 30 0z m-69 -60 c13 -16 12 -17 -3 -4 -10 7 -18 15 -18 17 0 8 8 3
21 -13z m20 -56 c-1 -12 -15 -9 -19 4 -3 6 1 10 8 8 6 -3 11 -8 11 -12z m114
-77 c44 -44 77 -80 75 -80 -3 0 -41 36 -85 80 -44 44 -77 80 -75 80 3 0 41
-36 85 -80z m390 -70 c49 -49 87 -92 84 -94 -3 -3 -37 -2 -76 1 l-71 6 -88 88
-89 89 75 0 75 0 90 -90z m288 2 c48 -48 87 -91 87 -95 0 -4 -30 -7 -68 -7
l-67 0 -95 95 -95 95 75 0 75 0 88 -88z m234 56 c30 -29 33 -38 33 -89 0 -32
-5 -61 -11 -65 -7 -4 -52 34 -108 90 l-96 96 75 0 c70 0 76 -2 107 -32z
m-1027 -114 c0 -8 -4 -12 -10 -9 -5 3 -10 10 -10 16 0 5 5 9 10 9 6 0 10 -7
10 -16z m200 1 c0 -8 -4 -15 -10 -15 -5 0 -10 7 -10 15 0 8 5 15 10 15 6 0 10
-7 10 -15z m48 -26 c-3 -8 -7 -3 -11 10 -4 17 -3 21 5 13 5 -5 8 -16 6 -23z
m810 -276 l-3 -238 -65 -1 -65 -1 55 6 55 6 3 233 c1 146 6 232 12 232 7 0 9
-84 8 -237z"/>
</g>
</svg>
